<?xml version="1.0"?>
<svg xmlns="http://www.w3.org/2000/svg" viewBox="0 0 512 512" width="512px" height="512px"><g><g id="Business_card" data-name="Business card"><path d="M120,208H288a8,8,0,0,0,6.86-12.116l-48-80a8,8,0,0,0-13.72,0L224,131.12,194.86,82.554a8,8,0,0,0-13.72,0l-68,113.33A8,8,0,0,0,120,208Zm120-72.45L273.871,192H260.53l-27.2-45.332Zm-52-33.331L241.87,192H134.13Z" data-original="#000000" class="active-path" data-old_color="#000000" fill="#FB7756"/><path d="M276,104a28,28,0,1,0-28-28A28.032,28.032,0,0,0,276,104Zm0-40a12,12,0,1,1-12,12A12.013,12.013,0,0,1,276,64Z" data-original="#000000" class="active-path" data-old_color="#000000" fill="#FB7756"/><path d="M424,8H88a8,8,0,0,0-8,8V240a8,8,0,0,0,8,8H424a8,8,0,0,0,8-8V16A8,8,0,0,0,424,8Zm-8,224H96V24H416Z" data-original="#000000" class="active-path" data-old_color="#000000" fill="#FB7756"/><path d="M424,264H88a8,8,0,0,0-8,8V496a8,8,0,0,0,8,8H424a8,8,0,0,0,8-8V272A8,8,0,0,0,424,264Zm-8,16V448H348.53l-45.67-76.116a8,8,0,0,0-13.72,0L280,387.12l-29.14-48.566a8,8,0,0,0-13.72,0L171.47,448H96V280ZM297.87,448H190.13L244,358.219Zm18.66,0-27.2-45.332L296,391.55,329.871,448ZM96,488V464H416v24Z" data-original="#000000" class="active-path" data-old_color="#000000" fill="#FB7756"/><path d="M328,120h56a8,8,0,0,0,8-8V56a8,8,0,0,0-8-8H328a8,8,0,0,0-8,8v56A8,8,0,0,0,328,120Zm8-56h40v40H336Z" data-original="#000000" class="active-path" data-old_color="#000000" fill="#FB7756"/><path d="M328,144h56a8,8,0,0,0,0-16H328a8,8,0,0,0,0,16Z" data-original="#000000" class="active-path" data-old_color="#000000" fill="#FB7756"/><path d="M328,168h24a8,8,0,0,0,0-16H328a8,8,0,0,0,0,16Z" data-original="#000000" class="active-path" data-old_color="#000000" fill="#FB7756"/><path d="M120,312h88a8,8,0,0,0,0-16H120a8,8,0,0,0,0,16Z" data-original="#000000" class="active-path" data-old_color="#000000" fill="#FB7756"/><path d="M120,336h24a8,8,0,0,0,0-16H120a8,8,0,0,0,0,16Z" data-original="#000000" class="active-path" data-old_color="#000000" fill="#FB7756"/><path d="M176,320h-8a8,8,0,0,0,0,16h8a8,8,0,0,0,0-16Z" data-original="#000000" class="active-path" data-old_color="#000000" fill="#FB7756"/></g></g> </svg>
