<?xml version="1.0"?>
<svg xmlns="http://www.w3.org/2000/svg" id="outline" height="512px" viewBox="0 0 512 512" width="512px" class=""><g><path d="m240 368h72v16h-72z" data-original="#000000" class="active-path" data-old_color="#000000" fill="#EE0979"/><path d="m200 368h24v16h-24z" data-original="#000000" class="active-path" data-old_color="#000000" fill="#EE0979"/><path d="m272 400h104v16h-104z" data-original="#000000" class="active-path" data-old_color="#000000" fill="#EE0979"/><path d="m192 400h64v16h-64z" data-original="#000000" class="active-path" data-old_color="#000000" fill="#EE0979"/><path d="m136 400h40v16h-40z" data-original="#000000" class="active-path" data-old_color="#000000" fill="#EE0979"/><path d="m232 328h48a7.99836 7.99836 0 0 0 4.4375-1.34375l48-32a7.99943 7.99943 0 0 0 3.5625-6.65625v-88a7.99927 7.99927 0 0 0 -4.11523-6.99316l-72-40a7.99618 7.99618 0 0 0 -7.76954 0l-72 40a7.99927 7.99927 0 0 0 -4.11523 6.99316v88a7.99943 7.99943 0 0 0 3.5625 6.65625l48 32a7.99836 7.99836 0 0 0 4.4375 1.34375zm24-158.84814 55.52734 30.84814-55.52734 30.84814-55.52734-30.84814zm-64 44.444 60.11523 33.39733a7.99788 7.99788 0 0 0 7.76954 0l60.11523-33.39736v70.12292l-42.42188 28.28125h-43.15624l-42.42188-28.28125z" data-original="#000000" class="active-path" data-old_color="#000000" fill="#EE0979"/><path d="m80 496h352a24.0275 24.0275 0 0 0 24-24v-432a24.0275 24.0275 0 0 0 -24-24h-352a24.0275 24.0275 0 0 0 -24 24v432a24.0275 24.0275 0 0 0 24 24zm352-16h-352a8.00917 8.00917 0 0 1 -8-8v-376h368v376a8.00917 8.00917 0 0 1 -8 8zm-352-448h352a8.00917 8.00917 0 0 1 8 8v40h-368v-40a8.00917 8.00917 0 0 1 8-8z" data-original="#000000" class="active-path" data-old_color="#000000" fill="#EE0979"/><circle cx="96" cy="56" r="8" data-original="#000000" class="active-path" data-old_color="#000000" fill="#EE0979"/><circle cx="120" cy="56" r="8" data-original="#000000" class="active-path" data-old_color="#000000" fill="#EE0979"/><circle cx="144" cy="56" r="8" data-original="#000000" class="active-path" data-old_color="#000000" fill="#EE0979"/></g> </svg>
